<svg width="858" height="604" viewBox="0 0 858 604" fill="none" xmlns="http://www.w3.org/2000/svg">
<path d="M709.942 307.171L739.971 291.022V335.954C772.138 369.993 800.209 412.208 817.948 467.259V225.661C817.948 211.848 810.733 199.203 799.039 192.206C787.142 185.198 772.521 184.816 760.433 191.431L640.925 256.016L621.431 266.517L543.252 308.923L523.949 319.423L429.202 370.577L335.817 320.198L316.132 309.496L237.761 267.09L218.458 256.59L97.9818 191.42C85.8937 184.806 71.273 185.198 59.3764 192.195C47.4799 199.203 40.276 211.837 40.276 225.651V468.215C57.8229 413.164 86.0852 370.96 118.253 336.91V291L149.058 307.733L167.19 317.459L242.252 357.922L261.161 368.231L410.687 448.955C422.19 455.177 436.225 455.177 447.728 448.955L598.042 367.838L616.951 357.529L691.81 317.066L709.942 307.171Z" fill="#B23256"/>
<path d="M78.977 157.604C122.595 157.604 157.954 122.323 157.954 78.802C157.954 35.2809 122.595 0 78.977 0C35.3592 0 0 35.2809 0 78.802C0 122.323 35.3592 157.604 78.977 157.604Z" fill="#B23256"/>
<path d="M779.023 157.604C822.641 157.604 858 122.323 858 78.802C858 35.2809 822.641 0 779.023 0C735.405 0 700.046 35.2809 700.046 78.802C700.046 122.323 735.405 157.604 779.023 157.604Z" fill="#B23256"/>
<path d="M137.758 344.321C131.128 350.935 124.499 357.932 118.263 365.524C75.7635 416.105 43.7875 484.374 40.2866 584.549C40.0951 590.972 39.8929 597.385 39.8929 604H118.274V584.74C120.03 545.052 126.851 511.99 137.768 483.78C156.869 433.984 188.259 399.552 225.109 370.96L151.612 331.081C146.919 335.37 142.237 339.649 137.758 344.321Z" fill="#31AA75"/>
<path d="M430.969 209.905C455.922 245.887 489.845 272.93 524.737 296.659L602.713 254.445C518.107 200.169 470.148 165.355 470.148 78.7914C470.148 57.3974 452.602 39.8894 431.16 39.8894C409.517 39.8894 392.172 57.3974 392.172 78.7914C392.172 165.355 343.436 200.371 257.266 254.636C257.074 254.827 256.681 255.029 256.489 255.029L334.86 297.435C370.528 273.514 405.43 246.471 430.969 209.905Z" fill="#31AA75"/>
<path d="M739.971 364.547C733.735 356.955 727.106 349.959 720.477 343.153C716.188 338.874 711.9 334.786 707.409 330.699L633.913 370.376C670.368 398.968 701.557 433.4 720.477 483.005C731.394 511.204 738.215 544.67 739.971 584.74V604H818.352C818.352 597.385 818.16 590.972 817.958 584.549C814.436 483.79 782.662 415.319 739.971 364.547Z" fill="#31AA75"/>
</svg>
