<svg width="772" height="649" viewBox="0 0 772 649" fill="none" xmlns="http://www.w3.org/2000/svg">
<path d="M543.82 520.62H512.82V277.08L487.08 275.79V197.42C473.39 187.55 435.65 162.33 411.71 146.34C402.14 139.95 393.24 134 386.02 129.14C377.16 135.14 365.02 143.29 352.02 151.98C329.59 166.98 297.51 188.41 284.89 197.47V275.79L259.15 277.08V520.62H228.15L228.49 268.76C229.6 263.47 233 247.38 250.22 246.53L253.89 246.35V183.35L258.57 178.79C263.06 174.42 282.44 161.22 334.79 126.25C352.7 114.25 369.03 103.37 377.13 97.7301L385.87 91.6401L394.68 97.6401C402.6 103.03 415.05 111.34 428.92 120.64C484.41 157.72 508.41 174 513.37 178.82L518.05 183.38V246.38L521.73 246.56C538.94 247.41 542.34 263.5 543.45 268.79L543.79 271.99L543.82 520.62Z" fill="white"/>
<path d="M423.9 40.3198C425.723 46.2498 426.129 52.5247 425.085 58.64C424.041 64.7553 421.577 70.5404 417.891 75.5301C414.204 80.5198 409.398 84.5749 403.86 87.3693C398.321 90.1637 392.204 91.6194 386 91.6194C379.796 91.6194 373.679 90.1637 368.14 87.3693C362.601 84.5749 357.796 80.5198 354.109 75.5301C350.423 70.5404 347.959 64.7553 346.915 58.64C345.871 52.5247 346.277 46.2498 348.1 40.3198C350.597 48.4215 355.626 55.5097 362.446 60.5446C369.267 65.5796 377.522 68.2963 386 68.2963C394.478 68.2963 402.733 65.5796 409.554 60.5446C416.374 55.5097 421.402 48.4215 423.9 40.3198V40.3198Z" fill="white"/>
<path d="M386 0.97998L392.03 19.55H411.56L395.76 31.03L401.8 49.6L386 38.12L370.2 49.6L376.24 31.03L360.44 19.55H379.97L386 0.97998Z" fill="white"/>
<path d="M693.82 393L686.47 423.83L721.77 421.64C710.15 445.46 684.3 498.3 671.77 522.7C664.61 522 657.14 521.64 649.54 521.64C603.97 521.64 551.22 533.9 492.54 558.11C502.8 552.18 513.35 546.68 524.08 541.66C536.674 535.776 549.568 530.559 562.71 526.03C589.964 516.522 618.106 509.781 646.71 505.91L657.26 504.43L674.9 421.85L679.84 398.59L700.43 301.9L676.14 308.9C669.07 310.9 660.95 313.2 652.05 315.7L649.21 316.5C623.86 323.6 592.32 332.43 560.06 342.27L557.31 343.11L557.37 374.94L562.37 373.39C598.31 362.26 633.85 352.32 657.37 345.74L660.26 344.92L632 477.43C607.65 481.267 583.642 487.025 560.2 494.65C537.26 502.105 514.972 511.433 493.56 522.54C438.37 551.18 402.8 584.87 386 603.07C369.2 584.87 333.63 551.18 278.49 522.54C257.078 511.435 234.789 502.107 211.85 494.65C188.392 487.025 164.367 481.267 140 477.43L111.78 344.91L114.68 345.73C138.19 352.31 173.73 362.25 209.68 373.38L214.68 374.93L214.74 343.1L212 342.26C179.75 332.43 148.22 323.6 122.83 316.48L120 315.69C111.1 313.19 103 310.92 95.91 308.89L71.62 301.89L91.77 396.53L97.15 421.85L114.79 504.42L125.35 505.9C153.955 509.773 182.097 516.517 209.35 526.03C222.499 530.569 235.4 535.796 248 541.69C258.73 546.69 269.28 552.21 279.54 558.14C220.83 533.93 168.08 521.67 122.54 521.67C114.94 521.67 107.47 522.03 100.31 522.73C87.78 498.33 61.93 445.49 50.31 421.67L85.61 423.86L78.18 393L0.280029 388.31L11.59 411.59C12.09 412.59 65.69 523.16 78.41 546.35L83.54 555.67L94 554.05C103.451 552.643 112.995 551.957 122.55 552C228.81 552 360.55 630.81 382.09 646.34L386 649L390 646.25C411.5 630.76 543.19 552 649.45 552C659.005 551.957 668.549 552.642 678 554.05L688.5 555.7L693.64 546.38C706.2 523.46 759.94 412.67 760.44 411.64L771.76 388.34L693.82 393Z" fill="#F6C90E"/>
</svg>
