<svg width="528" height="750" viewBox="0 0 528 750" fill="none" xmlns="http://www.w3.org/2000/svg">
<path d="M282.12 75.47C285.77 74.13 289.2 72.25 292.29 69.89C270.79 71.05 252.43 54.56 251.27 33.06C250.58 20.2 256.29 7.82 266.52 0C245.02 1.12 228.51 19.46 229.63 40.96C230.75 62.46 249.09 78.97 270.59 77.85C274.54 77.64 278.42 76.84 282.12 75.47Z" fill="#F6FBF4"/>
<path d="M277.53 35.6398L272.36 53.9498L287.3 42.1697L303.12 52.7397L296.53 34.8998L311.48 23.1198L292.47 23.8597L285.9 6.00977L280.73 24.3198L261.72 25.0698L277.53 35.6398Z" fill="#F6FBF4"/>
<path d="M518.1 312.82H478.35C473.18 199.05 379.02 108.09 263.99 108.09C148.96 108.09 54.82 199.04 49.65 312.82H9.88C4.44 312.82 0.0300195 317.24 0.0200195 322.68V357.41V702.67C0.0200195 708.11 4.41999 712.52 9.85999 712.53C9.86999 712.53 9.87 712.53 9.88 712.53C10.46 712.53 11.04 712.48 11.61 712.38C17.59 712.15 53.01 713.25 56.17 713.43C82.16 715.08 106.41 722.96 124.53 735.59C124.86 735.82 125.4 736.2 126.19 736.67C127.84 737.73 129.14 738.58 130.13 739.27V740.14C130.13 745.58 134.54 750 139.99 750H140H388C393.44 750 397.86 745.6 397.87 740.15V740.14V739.32C398.87 738.64 400.15 737.78 401.8 736.72C402.56 736.23 403.17 735.85 403.53 735.59C421.61 722.97 445.87 715.11 471.83 713.46C475.01 713.27 510.41 712.2 516.39 712.41C516.96 712.51 517.54 712.56 518.12 712.56C523.56 712.56 527.97 708.16 527.98 702.72C527.98 702.71 527.98 702.71 527.98 702.7V322.68C527.98 317.24 523.57 312.82 518.12 312.82C518.11 312.82 518.1 312.82 518.1 312.82ZM263.99 127.82C368.14 127.82 453.47 209.93 458.61 312.83H69.38C74.54 209.93 159.86 127.82 263.99 127.82ZM508.26 481.73C507.51 481.52 506.74 481.33 505.98 481.13L504.88 480.84C503.21 480.42 501.52 480.04 499.84 479.7L498.73 479.49C497.34 479.22 495.93 478.97 494.52 478.75L493.2 478.54C491.47 478.3 489.74 478.07 488 477.9L487.22 477.84C485.71 477.69 484.2 477.59 482.68 477.5L481.26 477.43C479.53 477.35 477.73 477.3 475.96 477.3C473.83 477.3 471.7 477.38 469.58 477.49L467.66 477.62C466.14 477.73 464.6 477.87 463.09 478.04C462.43 478.11 461.76 478.19 461.09 478.27C459.32 478.5 457.57 478.76 455.82 479.06L454.81 479.22C452.75 479.59 450.7 480.03 448.68 480.52C448.1 480.66 447.53 480.81 446.95 480.96C445.46 481.34 443.97 481.74 442.5 482.17L440.53 482.78C439 483.26 437.48 483.78 435.97 484.31C435.49 484.48 435.01 484.64 434.53 484.82C432.59 485.55 430.67 486.32 428.76 487.15C428.29 487.35 427.84 487.57 427.37 487.78C425.91 488.44 424.47 489.11 423.04 489.83C422.43 490.13 421.81 490.45 421.2 490.77C419.84 491.48 418.5 492.21 417.17 492.97C416.66 493.26 416.14 493.55 415.63 493.84C413.84 494.9 412.07 495.99 410.34 497.14L409.47 497.73C408.01 498.71 406.58 499.73 405.14 500.78C404.61 501.17 404.08 501.58 403.55 501.98C402.34 502.91 401.16 503.86 399.99 504.83C399.5 505.24 399.01 505.64 398.53 506.04C398.28 506.26 398.03 506.45 397.79 506.66V383.9L403.28 377.12H508.25V481.73H508.26ZM372.85 480.45L372.4 479.98C370.86 478.35 369.27 476.77 367.67 475.22C367.31 474.88 366.98 474.54 366.62 474.22C364.89 472.6 363.16 471.03 361.42 469.5L360.4 468.63C358.73 467.22 357.03 465.84 355.31 464.52C355.08 464.34 354.85 464.15 354.61 463.97C352.74 462.53 350.82 461.16 348.88 459.82L347.62 458.95C345.65 457.62 343.64 456.35 341.61 455.08L341.26 454.88C339.3 453.69 337.31 452.57 335.29 451.48L334.03 450.8C331.95 449.71 329.85 448.65 327.73 447.66L326.6 447.14C324.63 446.27 322.64 445.41 320.62 444.54L319.7 444.16C317.51 443.29 315.29 442.43 313.06 441.7L311.61 441.21C309.33 440.45 307.03 439.72 304.68 439.07L304.47 439.01C302.2 438.38 299.91 437.81 297.6 437.28L296.12 436.94C293.81 436.44 291.47 435.98 289.12 435.58L287.9 435.39C285.74 435.04 283.57 434.75 281.39 434.52L280.23 434.38C277.85 434.12 275.44 433.93 273.03 433.78L271.44 433.7C268.97 433.58 266.49 433.49 263.99 433.49C261.49 433.49 259.01 433.58 256.54 433.7L254.94 433.78C252.53 433.93 250.13 434.12 247.75 434.38L246.57 434.52C244.4 434.77 242.24 435.07 240.09 435.39L238.85 435.63C236.51 436.03 234.19 436.5 231.92 436.99L230.39 437.34C228.12 437.86 225.86 438.42 223.63 439.07L223.27 439.1C220.97 439.75 218.69 440.47 216.43 441.22L214.91 441.74C212.69 442.5 210.5 443.32 208.33 444.18L207.33 444.6C205.36 445.41 203.41 446.25 201.47 447.15L200.24 447.71C198.14 448.7 196.06 449.73 194.02 450.82L192.66 451.56C190.71 452.63 188.77 453.72 186.87 454.87L186.38 455.16C184.37 456.38 182.4 457.67 180.45 458.99C180 459.29 179.58 459.59 179.12 459.86C177.2 461.19 175.29 462.55 173.43 463.97L172.69 464.55C170.96 465.87 169.31 467.23 167.66 468.62L166.59 469.49C164.82 471.01 163.09 472.58 161.39 474.19C161.03 474.52 160.69 474.87 160.34 475.19C158.74 476.74 157.17 478.32 155.64 479.94L155.15 480.43C153.52 482.16 151.94 483.97 150.39 485.79C150.22 486 150.03 486.18 149.86 486.39V390.24H378.14V486.39C377.96 486.17 377.77 485.98 377.59 485.77C376.04 483.99 374.45 482.2 372.83 480.47H372.85V480.45ZM127.92 504.86C126.77 503.89 125.58 502.94 124.36 502.01C123.83 501.6 123.3 501.2 122.77 500.81C121.36 499.76 119.92 498.74 118.44 497.76L117.57 497.17C115.84 496.02 114.11 494.93 112.28 493.87C111.78 493.57 111.26 493.28 110.74 493C109.42 492.24 108.08 491.51 106.71 490.8L104.88 489.86C103.44 489.14 102 488.47 100.55 487.81C100.08 487.6 99.63 487.38 99.16 487.18C97.25 486.31 95.33 485.58 93.39 484.85C92.91 484.67 92.43 484.51 91.95 484.34C90.44 483.8 88.93 483.28 87.39 482.81L85.42 482.2C83.95 481.77 82.47 481.33 80.97 480.99C80.4 480.84 79.83 480.69 79.24 480.55C77.21 480.06 75.17 479.62 73.11 479.25L72.11 479.09C70.38 478.79 68.62 478.53 66.83 478.3C66.17 478.21 65.5 478.14 64.83 478.07C63.32 477.9 61.79 477.76 60.26 477.65L58.34 477.52C56.22 477.41 54.09 477.33 51.96 477.33C50.23 477.33 48.42 477.38 46.66 477.46L45.25 477.53C43.73 477.62 42.21 477.72 40.7 477.87L39.92 477.93C38.19 478.1 36.46 478.33 34.72 478.57L33.4 478.78C31.99 479 30.58 479.25 29.19 479.52L28.08 479.73C26.39 480.08 24.71 480.46 23.04 480.87L21.94 481.16C21.18 481.36 20.42 481.55 19.66 481.76V377.15H124.62L130.11 383.93V506.7C129.87 506.48 129.62 506.29 129.37 506.08C128.87 505.66 128.41 505.27 127.92 504.86ZM393.92 357.42L384.07 369.55L383.26 370.54H144.69L113.9 332.55H414.1L393.92 357.42ZM19.73 332.54H88.5L108.65 357.41H19.74V332.54H19.73ZM12.53 712.16C13.3 711.95 14.04 711.64 14.73 711.24C14.05 711.64 13.32 711.95 12.56 712.17L12.53 712.16ZM57.39 693.74C55.5 693.62 43.46 693.23 32.64 692.96C27.36 692.82 23.11 692.72 19.75 692.66V502.43C20.45 502.19 21.16 501.94 21.87 501.72C22.34 501.57 22.8 501.41 23.26 501.27C24.7 500.84 26.14 500.4 27.59 500.06L27.99 499.96C29.32 499.62 30.67 499.32 32.01 499.04L33.51 498.76C34.51 498.57 35.5 498.4 36.51 498.24C37.07 498.14 37.64 498.07 38.24 497.99C39.2 497.86 40.17 497.74 41.14 497.63C41.7 497.57 42.27 497.5 42.87 497.45C43.9 497.36 44.94 497.29 45.98 497.22C46.47 497.22 46.96 497.15 47.45 497.13C48.98 497.06 50.52 497.02 52.06 497.02C53.99 497.02 55.93 497.08 57.85 497.19C58.48 497.19 59.11 497.3 59.74 497.35C61.03 497.45 62.34 497.54 63.59 497.7C64.34 497.79 65.09 497.93 65.84 498.03C66.98 498.19 68.14 498.34 69.3 498.54C70.1 498.69 70.89 498.87 71.67 499.03C72.75 499.25 73.83 499.45 74.89 499.71C75.7 499.91 76.51 500.14 77.32 500.35C78.35 500.63 79.39 500.9 80.41 501.22C81.22 501.46 82.02 501.75 82.83 502.01C83.83 502.34 84.83 502.66 85.82 503.02C86.63 503.31 87.42 503.64 88.22 503.96C89.19 504.34 90.16 504.71 91.11 505.13C91.91 505.47 92.69 505.84 93.47 506.2C94.41 506.63 95.34 507.07 96.26 507.53C97.04 507.92 97.81 508.34 98.58 508.74C99.45 509.23 100.38 509.71 101.27 510.21C102.16 510.71 102.78 511.08 103.53 511.56C104.28 512.05 105.26 512.63 106.13 513.19C107 513.75 107.59 514.17 108.32 514.67C109.05 515.17 109.99 515.83 110.81 516.4C111.62 516.97 112.23 517.47 112.94 518.02C113.65 518.57 114.53 519.27 115.3 519.92C116.08 520.57 116.67 521.08 117.34 521.65C118.02 522.22 118.86 522.99 119.59 523.68C120.32 524.37 120.9 524.93 121.55 525.57C122.2 526.21 122.97 526.99 123.67 527.72C124.37 528.45 124.92 529.05 125.53 529.73C126.14 530.41 126.86 531.23 127.51 532C128.16 532.77 128.71 533.42 129.29 534.14C129.59 534.52 129.89 534.92 130.16 535.3V715.68C109.9 703.21 84.36 695.47 57.39 693.74ZM149.84 660.02V521.37L150.39 520.33L151.46 518.43L152.63 516.42C153 515.81 153.37 515.19 153.76 514.58C154.14 513.96 154.57 513.27 154.99 512.62C155.41 511.97 155.78 511.41 156.18 510.81C156.58 510.21 157.05 509.55 157.47 508.91C157.89 508.28 158.34 507.72 158.71 507.18C159.08 506.64 159.58 505.95 160.05 505.34C160.53 504.73 160.92 504.18 161.36 503.61C161.8 503.04 162.28 502.42 162.75 501.88L164.12 500.15L165.56 498.42C166.03 497.87 166.5 497.33 166.98 496.79C167.46 496.25 167.97 495.68 168.47 495.14C168.97 494.6 169.45 494.07 169.94 493.55L171.48 491.95C171.98 491.44 172.48 490.93 173 490.43L174.6 488.88C175.11 488.39 175.63 487.9 176.16 487.42L177.81 485.93C178.35 485.45 178.88 484.98 179.41 484.52L181.14 483.08C181.69 482.63 182.23 482.21 182.79 481.73C183.34 481.24 183.96 480.81 184.52 480.35L186.2 479.06L187.99 477.74L189.72 476.5C190.33 476.08 190.93 475.63 191.55 475.25L193.28 474.07C193.9 473.66 194.53 473.27 195.15 472.88C195.77 472.49 196.35 472.13 196.96 471.76C197.57 471.4 198.23 471.01 198.87 470.63L200.71 469.57C201.36 469.21 202.01 468.86 202.67 468.51C203.33 468.16 203.91 467.83 204.54 467.51L206.53 466.51C207.16 466.2 207.79 465.89 208.43 465.58C209.07 465.28 209.79 464.96 210.47 464.65C211.15 464.35 211.75 464.06 212.39 463.78L214.48 462.91L216.42 462.11L218.53 461.31C219.19 461.07 219.84 460.82 220.5 460.58C221.17 460.35 221.93 460.09 222.64 459.85C223.35 459.61 223.97 459.4 224.64 459.19C225.32 458.98 226.1 458.74 226.84 458.52L228.83 457.93C229.57 457.72 230.33 457.53 231.08 457.34C231.83 457.15 232.41 456.98 233.07 456.82C233.73 456.66 234.6 456.46 235.37 456.3C236.13 456.14 236.7 455.99 237.37 455.85C238.04 455.71 238.95 455.55 239.73 455.4C240.52 455.25 241.04 455.14 241.7 455.03C242.51 454.89 243.31 454.77 244.12 454.65L246.09 454.35C246.91 454.24 247.75 454.15 248.58 454.05C249.22 453.98 249.86 453.89 250.5 453.82C251.37 453.72 252.23 453.66 253.1 453.59C253.71 453.54 254.32 453.47 254.94 453.43C255.93 453.36 256.92 453.32 257.92 453.27C258.42 453.27 258.92 453.21 259.42 453.19C260.93 453.14 262.43 453.11 263.94 453.11C265.45 453.11 266.95 453.11 268.45 453.19C268.94 453.19 269.43 453.24 269.91 453.27C270.92 453.27 271.93 453.36 272.93 453.43C273.52 453.43 274.11 453.53 274.66 453.58C275.53 453.65 276.45 453.72 277.35 453.81C277.98 453.87 278.61 453.96 279.25 454.04C280.12 454.14 280.93 454.23 281.77 454.34C282.43 454.43 283.08 454.54 283.73 454.64C284.54 454.76 285.35 454.87 286.16 455.01L288.13 455.38C288.92 455.53 289.72 455.67 290.5 455.84C291.16 455.98 291.81 456.13 292.47 456.28C293.13 456.43 294.02 456.62 294.79 456.81C295.56 457 296.11 457.15 296.76 457.31C297.41 457.47 298.28 457.7 299.03 457.92C299.78 458.14 300.35 458.3 301 458.5C301.66 458.7 302.48 458.93 303.22 459.17C303.96 459.4 304.54 459.6 305.19 459.82L307.36 460.56C308.02 460.79 308.66 461.05 309.31 461.29C309.96 461.53 310.74 461.81 311.45 462.09L313.37 462.88C314.07 463.17 314.77 463.45 315.47 463.75C316.17 464.05 316.75 464.32 317.38 464.62L319.42 465.55L321.32 466.48L323.32 467.48C323.94 467.8 324.56 468.14 325.18 468.47C325.8 468.8 326.49 469.17 327.14 469.54L328.98 470.6C329.62 470.96 330.26 471.34 330.9 471.72L332.69 472.84L334.57 474.03L336.3 475.21C336.92 475.63 337.53 476.08 338.14 476.46C338.75 476.84 339.29 477.28 339.87 477.7L341.66 479.01C342.22 479.43 342.79 479.88 343.34 480.31C343.89 480.74 344.51 481.18 345.07 481.68C345.63 482.18 346.17 482.55 346.72 483.04C347.27 483.53 347.85 483.98 348.45 484.47C349.05 484.96 349.52 485.41 350.06 485.88C350.6 486.36 351.16 486.86 351.7 487.36L353.28 488.83C353.81 489.34 354.35 489.85 354.87 490.37C355.39 490.89 355.89 491.38 356.39 491.9C356.89 492.42 357.42 492.96 357.93 493.49L359.4 495.08C359.9 495.63 360.4 496.18 360.89 496.73C361.38 497.28 361.84 497.82 362.32 498.37L363.75 500.1C364.22 500.66 364.68 501.23 365.13 501.83C365.58 502.43 366.06 502.99 366.51 503.56C366.96 504.13 367.38 504.72 367.84 505.29C368.3 505.86 368.71 506.49 369.16 507.09C369.61 507.7 370.03 508.29 370.43 508.9C370.84 509.51 371.3 510.12 371.69 510.74C372.08 511.36 372.51 511.98 372.91 512.61C373.31 513.24 373.72 513.87 374.11 514.5C374.5 515.13 374.89 515.77 375.28 516.41C375.67 517.05 376.04 517.7 376.41 518.35C376.78 519 377.15 519.65 377.51 520.32C377.69 520.64 377.87 520.98 378.05 521.31V730.24H149.84V660.02V660.02ZM495.36 692.94C484.54 693.21 472.51 693.6 470.6 693.72C443.62 695.45 418.06 703.18 397.84 715.66V661.04C397.93 660.29 397.93 659.54 397.84 658.79V535.35C398.13 534.97 398.43 534.57 398.71 534.19C399.29 533.47 399.89 532.75 400.44 532.05C400.99 531.35 401.75 530.53 402.42 529.78C403.1 529.04 403.65 528.43 404.28 527.77C404.91 527.11 405.68 526.32 406.4 525.62C407.12 524.92 407.7 524.35 408.36 523.73C409.02 523.11 409.85 522.37 410.61 521.7C411.37 521.03 411.96 520.52 412.65 519.97C413.34 519.42 414.22 518.7 415.01 518.07C415.81 517.45 416.42 516.98 417.14 516.45C417.86 515.92 418.79 515.26 419.63 514.72C420.47 514.18 421.08 513.72 421.82 513.24C422.56 512.76 423.55 512.15 424.42 511.61C425.29 511.07 425.91 510.74 426.67 510.26C427.54 509.76 428.46 509.27 429.37 508.79C430.13 508.38 430.9 507.97 431.68 507.58C432.6 507.12 433.53 506.71 434.47 506.25C435.26 505.89 436.04 505.51 436.83 505.18C437.79 504.76 438.75 504.39 439.72 504.01C440.52 503.69 441.31 503.37 442.12 503.07C443.11 502.71 444.11 502.39 445.11 502.06C445.92 501.8 446.71 501.51 447.53 501.27C448.55 500.97 449.59 500.7 450.62 500.4C451.43 500.19 452.23 499.96 453.05 499.76C454.12 499.51 455.2 499.3 456.27 499.08C457.06 498.92 457.85 498.73 458.65 498.59C459.78 498.39 460.93 498.24 462.07 498.08C462.82 497.98 463.57 497.84 464.32 497.75C465.6 497.59 466.92 497.5 468.17 497.4C468.8 497.35 469.43 497.27 470.06 497.24C471.98 497.13 473.92 497.07 475.85 497.07C477.39 497.07 478.92 497.11 480.46 497.18C480.95 497.18 481.44 497.24 481.93 497.27C482.97 497.33 484.01 497.41 485.05 497.5L486.78 497.68C487.74 497.78 488.71 497.91 489.67 498.04C490.24 498.12 490.8 498.2 491.4 498.29C492.4 498.45 493.4 498.62 494.4 498.81L495.9 499.09C497.24 499.37 498.59 499.67 499.92 500.01L500.33 500.11C501.79 500.47 503.23 500.89 504.66 501.32C505.12 501.46 505.59 501.62 506.05 501.77C506.76 502 507.47 502.24 508.17 502.48V692.7C504.82 692.76 500.61 692.9 495.33 693V692.94H495.36ZM513.22 711.21C513.92 711.6 514.66 711.91 515.43 712.13C514.66 711.94 513.92 711.64 513.22 711.26V711.21ZM419.33 357.42L439.48 332.54H508.26V357.41L419.33 357.42Z" fill="#F6FBF4"/>
</svg>
