<svg width="588" height="588" viewBox="0 0 588 588" fill="none" xmlns="http://www.w3.org/2000/svg">
<path d="M508.69 61.3799C508.48 61.3699 508.26 61.3599 508.05 61.3599H294H79.9501C79.7401 61.3599 79.5201 61.3699 79.3101 61.3799C69.5501 61.7099 61.7101 69.5599 61.3801 79.3099V385.23C71.4801 376.56 82.3601 368.43 93.8701 360.94L98.5601 357.89L98.5201 98.5499H294H489.48L489.44 357.89L494.13 360.94C505.64 368.43 516.52 376.56 526.62 385.23V79.3099C526.29 69.5499 518.45 61.7099 508.69 61.3799Z" fill="#FDB827"/>
<path d="M569.35 0.0600586H18.6501C8.39005 0.0800586 0.0800586 8.39005 0.0600586 18.6501V569.35C0.0800586 579.61 8.39005 587.92 18.6501 587.94H569.35C579.61 587.92 587.92 579.61 587.94 569.35V18.6501C587.92 8.39005 579.61 0.0800586 569.35 0.0600586ZM294 550.76H211.87C215 539.47 223.91 528.6 237.42 519.83L268.85 499.43C278.04 493.57 286.31 486.36 293.38 478.06L294 477.33L294.62 478.06C301.7 486.36 309.97 493.56 319.15 499.43L350.58 519.83C364.1 528.6 373.01 539.47 376.13 550.76H294ZM414.11 550.76C411.02 527.05 395.43 504.57 370.9 488.58L339.47 468.15C323.51 457.82 313.79 450.15 312.74 436.76L312.44 432.95H294H275.57L275.27 436.76C274.22 450.14 264.49 457.82 248.54 468.15L217.11 488.58C192.58 504.57 176.99 527.05 173.9 550.76H132.45C133.04 520.83 152.11 492.2 186.27 469.96L241.78 433.91C263.75 419.66 281.1 402.66 293.36 383.43L294.02 382.41L294.68 383.43C306.94 402.65 324.29 419.66 346.26 433.91L401.77 469.96C435.93 492.2 455 520.83 455.59 550.76H414.11ZM545.74 550.69H492.8V549.9C491.91 507.88 466.1 467.36 421.97 438.71L366.5 402.66C332.85 380.76 313.73 364.41 312.68 334.95L312.54 330.99H294H275.46L275.32 334.95C274.28 364.41 255.15 380.76 221.5 402.66L166.03 438.71C121.9 467.36 96.0801 507.88 95.2001 549.9V550.69H42.2601V543.61C42.2601 494.68 72.4801 448.11 127.35 412.46L210.6 358.37C247.39 334.47 276 304.41 293.32 271.45L294.01 270.13L294.7 271.45C312.02 304.41 340.63 334.47 377.42 358.37L460.67 412.46C515.54 448.11 545.76 494.68 545.76 543.61V550.69H545.74ZM550.76 446.96C533.5 422.35 509.61 399.8 480.98 381.19L397.72 327.1C343.94 292.15 313.74 246.52 312.71 198.6L312.62 194.56H294H275.39L275.3 198.6C274.27 246.52 244.07 292.15 190.29 327.1L107.03 381.19C78.4001 399.8 54.5101 422.34 37.2501 446.96V37.2401H294H550.76V446.96Z" fill="white"/>
</svg>
