<svg width="82" height="78" viewBox="0 0 82 78" fill="none" xmlns="http://www.w3.org/2000/svg">
<path d="M74.8699 53.7167C74.8699 53.7167 71.1773 47.7717 46.2501 40.1594C66.1823 40.1594 81.7826 42.8894 81.7826 42.8894L74.8699 53.7167Z" fill="#BF6B00"/>
<path d="M7.13007 53.7167C7.13007 53.7167 10.8227 47.7717 35.7499 40.1594C15.8177 40.1594 0.217413 42.8894 0.217413 42.8894L7.13007 53.7167Z" fill="#BF6B00"/>
<path d="M64.1896 38.7773C64.1921 39.9855 63.9152 41.1782 63.3802 42.2634C62.8452 43.3486 62.0665 44.2973 61.1039 45.0365C60.979 45.1295 60.8603 45.2319 60.7427 45.3301C53.7301 47.7717 47.0975 50.9629 41.0062 54.9437C34.915 50.9598 28.2813 47.7686 21.2698 45.3301C21.2875 45.3456 20.896 45.0365 20.896 45.0365C20.0057 44.3506 19.272 43.4851 18.7431 42.497C18.2143 41.509 17.9024 40.4209 17.828 39.3044C17.7537 38.1879 17.9185 37.0684 18.3117 36.0198C18.7048 34.9712 19.3174 34.0173 20.109 33.221C30.8788 25.9549 40.2535 18.5896 41 10.6443C41.7475 18.5896 51.1222 25.9549 61.892 33.221C63.3665 34.6993 64.1924 36.6966 64.1896 38.7773Z" fill="#39CE20"/>
<path d="M46.6332 6.06075C46.3027 6.68115 45.8301 7.21585 45.2535 7.62183C44.6769 8.02781 44.0124 8.29373 43.3134 8.3982C42.6145 8.50268 41.9006 8.44278 41.2292 8.22334C40.5578 8.00389 39.9476 7.63102 39.4478 7.13474C38.948 6.63845 38.5725 6.0326 38.3515 5.36593C38.1305 4.69926 38.0702 3.99039 38.1754 3.29635C38.2806 2.60231 38.5484 1.94248 38.9573 1.36996C39.3661 0.797432 39.9046 0.328195 40.5294 0C40.0779 0.847477 39.9119 1.81633 40.0556 2.76441C40.1993 3.71248 40.6453 4.58985 41.328 5.2678C42.0108 5.94574 42.8944 6.38855 43.8492 6.53126C44.804 6.67398 45.7797 6.50907 46.6332 6.06075Z" fill="#39CE20"/>
<path d="M46.1408 0.488931L45.2652 2.19665L46.6301 3.55187L44.7228 3.25209L43.8473 4.95981L43.5454 3.06602L41.6382 2.76624L43.358 1.89687L43.0561 0.00307898L44.4209 1.35933L46.1408 0.488931Z" fill="#39CE20"/>
<path d="M0.0404526 56.4984C22.8241 56.853 43.8785 61.2867 59.5528 78C59.5309 77.9576 59.4487 77.8181 59.2977 77.5865C46.2397 56.2845 24.5949 47.4016 0.217433 42.8956C0.118879 45.0547 0.0539866 47.2087 0.0227547 49.3574C-0.0126414 51.7343 -0.00674223 54.1147 0.0404526 56.4984Z" fill="#FF8E00"/>
<path d="M81.9595 56.4984C59.1759 56.853 38.1215 61.2867 22.4472 78C22.4691 77.9576 22.5513 77.8181 22.7023 77.5865C35.7603 56.2845 57.4051 47.4016 81.7826 42.8956C81.8818 45.0547 81.9467 47.2087 81.9772 49.3574C82.0126 51.7343 82.0067 54.1147 81.9595 56.4984Z" fill="#FF8E00"/>
</svg>
